<?xml version="1.0" encoding="UTF-8"?><svg id="Layer_2" xmlns="http://www.w3.org/2000/svg" viewBox="0 0 1283.01 330.14"><defs><style>.cls-1{fill:#f9792f;}.cls-2{fill:#f8ab55;}.cls-3{fill:#fb2d2b;}.cls-4{fill:#fff;}</style></defs><g id="Layer_4"><g><g><path class="cls-4" d="M367.48,202.33c-10.95,0-20.87-1.85-29.73-5.54-8.87-3.7-16.43-8.77-22.69-15.22s-11.04-13.8-14.34-22.05c-3.3-8.25-4.96-17.11-4.96-26.56,0-12.72,2.91-24.46,8.74-35.21,5.82-10.75,14.08-19.35,24.78-25.79s23.51-9.67,38.47-9.67,27.47,3.23,38.08,9.69c10.6,6.46,18.78,14.94,24.52,25.45,5.74,10.51,8.61,21.96,8.61,34.35,0,2.24-.09,4.35-.26,6.33-.17,1.98-.35,3.66-.52,5.04h-105.37c.52,7.14,2.48,13.22,5.87,18.23,3.39,5.01,7.73,8.88,13.04,11.6,5.3,2.72,10.91,4.08,16.82,4.08,7.13,0,13.78-1.7,19.95-5.09,6.17-3.39,10.39-7.96,12.65-13.69l29.73,8.35c-3.13,6.96-7.74,13.13-13.82,18.52-6.09,5.39-13.3,9.61-21.65,12.65-8.35,3.04-17.65,4.56-27.91,4.56Zm-35.73-81.11h71.46c-.7-6.8-2.65-12.7-5.87-17.71-3.22-5.01-7.43-8.92-12.65-11.72-5.22-2.8-11.04-4.21-17.47-4.21s-11.96,1.4-17.08,4.21c-5.13,2.8-9.3,6.71-12.52,11.72-3.22,5.01-5.17,10.92-5.87,17.71Z"/><path class="cls-4" d="M664.17,199.72h-34.95V124.15c0-10.79-1.87-18.68-5.61-23.65-3.74-4.97-8.91-7.45-15.52-7.45-6.96,0-13.48,2.62-19.56,7.84-6.09,5.23-10.43,11.95-13.04,20.18v78.65h-35.21V124.15c0-10.79-1.83-18.68-5.48-23.65-3.65-4.97-8.78-7.45-15.39-7.45s-13.3,2.55-19.56,7.64c-6.26,5.09-10.69,11.8-13.3,20.12v78.91h-34.69V64.36h31.56v25.25c5.22-8.77,12.21-15.51,21-20.24,8.78-4.73,18.73-7.09,29.86-7.09s20.12,2.75,26.47,8.25c6.34,5.5,10.39,12.29,12.13,20.37,5.56-9.28,12.65-16.37,21.26-21.27,8.61-4.9,18.39-7.35,29.34-7.35,8.35,0,15.17,1.51,20.47,4.52,5.3,3.01,9.43,7.05,12.39,12.12,2.96,5.07,5,10.79,6.13,17.15,1.13,6.36,1.7,12.72,1.7,19.08v84.58Z"/><path class="cls-4" d="M757.02,202.33c-11.13,0-21.04-2.76-29.73-8.29-8.7-5.52-15.56-12.51-20.6-20.97v82.2h-22.95V64.36h20.34v25.61c5.39-8.28,12.43-14.97,21.13-20.06,8.69-5.09,18.17-7.64,28.43-7.64,9.39,0,18,1.9,25.82,5.7,7.82,3.8,14.61,8.97,20.34,15.53,5.74,6.56,10.21,14.02,13.43,22.39,3.21,8.37,4.83,17.13,4.83,26.28,0,12.77-2.57,24.51-7.69,35.21-5.13,10.7-12.3,19.2-21.52,25.5-9.22,6.3-19.82,9.45-31.82,9.45Zm-7.04-19.82c6.78,0,12.91-1.42,18.39-4.26,5.48-2.84,10.17-6.62,14.08-11.36,3.91-4.73,6.91-10.11,9-16.13,2.09-6.02,3.13-12.22,3.13-18.59,0-6.71-1.17-13.08-3.52-19.1-2.35-6.02-5.65-11.36-9.91-16-4.26-4.64-9.22-8.3-14.87-10.97-5.65-2.66-11.78-4-18.39-4-4.17,0-8.48,.78-12.91,2.32-4.43,1.55-8.65,3.74-12.65,6.57-4,2.84-7.39,6.06-10.17,9.66-2.78,3.61-4.61,7.47-5.48,11.59v38.57c2.61,5.84,6.08,11.17,10.43,15.98,4.34,4.81,9.39,8.63,15.13,11.47,5.74,2.84,11.65,4.25,17.74,4.25Z"/><path class="cls-4" d="M894.26,202.33c-10.26,0-19.56-1.86-27.91-5.57-8.35-3.71-15.56-8.8-21.65-15.27-6.09-6.47-10.78-13.93-14.08-22.39-3.31-8.46-4.96-17.34-4.96-26.66s1.65-18.46,4.96-26.92c3.3-8.46,8-15.92,14.08-22.39,6.08-6.47,13.34-11.56,21.78-15.27,8.43-3.71,17.69-5.57,27.78-5.57s19.56,1.86,27.91,5.57c8.35,3.71,15.6,8.8,21.78,15.27,6.17,6.47,10.91,13.94,14.21,22.39,3.3,8.46,4.96,17.43,4.96,26.92s-1.65,18.21-4.96,26.66c-3.3,8.46-8,15.92-14.08,22.39-6.09,6.47-13.35,11.57-21.78,15.27-8.44,3.71-17.78,5.57-28.04,5.57Zm-45.12-69.64c0,9.29,2.04,17.73,6.13,25.3,4.08,7.57,9.52,13.55,16.3,17.94,6.78,4.39,14.34,6.58,22.69,6.58s15.95-2.24,22.82-6.71c6.87-4.47,12.34-10.54,16.43-18.2,4.08-7.66,6.13-16.13,6.13-25.43s-2.05-17.72-6.13-25.29c-4.09-7.57-9.56-13.59-16.43-18.07-6.87-4.47-14.48-6.71-22.82-6.71s-15.91,2.28-22.69,6.84c-6.78,4.56-12.22,10.62-16.3,18.2-4.09,7.57-6.13,16.09-6.13,25.55Z"/><path class="cls-4" d="M1143.41,64.36h17.47l-58.42,135.36h-15.39l-28.43-67.29-28.17,67.29h-15.39l-58.42-135.36h17.21l49.55,117.17,25.04-61.05-22.95-55.86h15.91l17.21,43.9,17.47-43.9h15.65l-22.69,55.86,25.04,61.05,49.29-117.17Z"/><path class="cls-4" d="M1161.74,160.86c0-8.46,2.43-15.76,7.3-21.9,4.87-6.13,11.61-10.88,20.21-14.25,8.61-3.37,18.56-5.05,29.86-5.05,6.61,0,13.47,.52,20.6,1.57,7.13,1.04,13.47,2.61,19.04,4.69v-11.44c0-11.4-3.39-20.48-10.17-27.22s-16.17-10.11-28.17-10.11c-7.3,0-14.48,1.35-21.52,4.04-7.04,2.7-14.39,6.65-22.04,11.87l-6.78-12.52c8.87-6.08,17.56-10.65,26.08-13.69,8.52-3.04,17.21-4.56,26.08-4.56,16.69,0,29.9,4.75,39.64,14.25,9.74,9.5,14.61,22.64,14.61,39.39v62.46c0,2.42,.52,4.19,1.56,5.31,1.04,1.12,2.69,1.77,4.96,1.94v14.08c-1.92,.17-3.57,.35-4.96,.52-1.39,.17-2.44,.17-3.13,0-4.35-.17-7.65-1.56-9.91-4.17-2.26-2.61-3.48-5.39-3.65-8.35l-.26-9.91c-6.09,7.82-14,13.87-23.73,18.13-9.74,4.26-19.65,6.39-29.73,6.39-8.7,0-16.56-1.86-23.6-5.57-7.04-3.71-12.52-8.72-16.43-15.03-3.91-6.3-5.87-13.26-5.87-20.86Zm91.02,10.33c1.91-2.41,3.39-4.74,4.43-6.98,1.04-2.24,1.56-4.22,1.56-5.95v-19.64c-5.91-2.24-12.04-3.96-18.39-5.17-6.35-1.21-12.74-1.81-19.17-1.81-12.69,0-22.95,2.5-30.78,7.49s-11.74,11.8-11.74,20.42c0,5,1.3,9.7,3.91,14.09,2.61,4.39,6.43,8.01,11.48,10.86,5.04,2.85,10.95,4.26,17.73,4.26,8.52,0,16.47-1.63,23.86-4.91,7.39-3.27,13.08-7.49,17.08-12.67Z"/></g><g><path class="cls-4" d="M330.62,320.23c0,2.09-.55,3.84-1.64,5.27-1.1,1.43-2.57,2.52-4.42,3.26-1.86,.74-3.88,1.11-6.07,1.11h-18.18v-37.63h20.14c1.77,0,3.29,.47,4.58,1.4,1.29,.94,2.28,2.14,2.97,3.6,.69,1.47,1.03,2.99,1.03,4.58,0,1.8-.46,3.51-1.38,5.11-.92,1.61-2.26,2.82-4.03,3.63,2.15,.64,3.86,1.78,5.11,3.45,1.25,1.66,1.88,3.73,1.88,6.2Zm-23-21.73v9.49h9.75c.81,0,1.55-.19,2.23-.58,.67-.39,1.21-.94,1.62-1.64,.41-.71,.61-1.54,.61-2.49s-.19-1.83-.56-2.52c-.37-.69-.87-1.24-1.48-1.64-.62-.41-1.32-.61-2.09-.61h-10.07Zm15.63,20.3c0-.95-.19-1.81-.58-2.57-.39-.76-.91-1.37-1.56-1.83-.65-.46-1.4-.69-2.25-.69h-11.24v9.96h10.86c.88,0,1.69-.22,2.41-.66,.72-.44,1.3-1.03,1.72-1.78,.42-.74,.64-1.55,.64-2.44Z"/><path class="cls-4" d="M356.51,330.14c-2.97,0-5.5-.5-7.61-1.51-2.1-1.01-3.8-2.39-5.09-4.16-1.29-1.77-2.24-3.77-2.84-6.02-.6-2.24-.9-4.58-.9-7.02v-19.19h7.26v19.19c0,1.56,.17,3.07,.5,4.53s.85,2.78,1.54,3.95c.69,1.17,1.62,2.08,2.78,2.76,1.17,.67,2.62,1.01,4.35,1.01s3.28-.34,4.42-1.03c1.15-.69,2.08-1.62,2.78-2.78,.71-1.17,1.22-2.48,1.54-3.95,.32-1.47,.48-2.96,.48-4.48v-19.19h7.26v19.19c0,2.54-.32,4.96-.95,7.23-.64,2.28-1.61,4.28-2.92,5.99-1.31,1.71-3,3.06-5.09,4.03s-4.59,1.46-7.53,1.46Z"/><path class="cls-4" d="M384.78,329.87v-37.63h7.31v37.63h-7.31Z"/><path class="cls-4" d="M404.12,329.87v-37.63h7.31v31.22h19.19v6.41h-26.5Z"/><path class="cls-4" d="M439.13,329.87v-37.63h13.67c4.1,0,7.53,.84,10.28,2.52,2.76,1.68,4.82,3.94,6.2,6.78s2.07,6,2.07,9.46c0,3.82-.76,7.14-2.28,9.96-1.52,2.83-3.67,5.02-6.44,6.57-2.77,1.56-6.05,2.33-9.83,2.33h-13.67Zm24.86-18.87c0-2.44-.44-4.58-1.33-6.44-.88-1.85-2.16-3.3-3.82-4.35s-3.67-1.56-6.04-1.56h-6.36v24.8h6.36c2.44,0,4.48-.55,6.12-1.64,1.64-1.09,2.9-2.58,3.76-4.45,.87-1.87,1.3-3.99,1.3-6.36Z"/><path class="cls-4" d="M481.7,329.87v-37.63h7.31v37.63h-7.31Z"/><path class="cls-4" d="M508.36,305.7v24.17h-7.31v-37.63h5.88l19.4,24.8v-24.75h7.26v37.58h-6.04l-19.19-24.17Z"/><path class="cls-4" d="M561.66,330.14c-2.47,0-4.79-.49-6.94-1.46-2.16-.97-4.05-2.34-5.7-4.11-1.64-1.77-2.92-3.81-3.84-6.12-.92-2.31-1.38-4.85-1.38-7.61,0-2.58,.47-5.01,1.4-7.29,.94-2.28,2.23-4.29,3.87-6.04,1.64-1.75,3.58-3.11,5.8-4.08,2.23-.97,4.63-1.46,7.21-1.46,3.57,0,6.62,.74,9.14,2.23s4.43,3.48,5.7,5.99l-5.46,4.03c-.92-1.87-2.24-3.3-3.98-4.29-1.73-.99-3.6-1.48-5.62-1.48-1.59,0-3.05,.34-4.37,1.01-1.33,.67-2.46,1.59-3.42,2.76-.95,1.17-1.68,2.51-2.17,4.03s-.74,3.13-.74,4.82c0,1.8,.27,3.46,.82,4.98,.55,1.52,1.33,2.85,2.33,4s2.18,2.04,3.52,2.68c1.34,.64,2.83,.95,4.45,.95,1.94,0,3.78-.49,5.51-1.48,1.73-.99,3.36-2.44,4.88-4.35v7.26c-3.15,3.36-6.82,5.03-11.02,5.03Zm10.49-14.26h-7.58v-5.35h13.62v19.34h-6.04v-13.99Z"/></g><g><path class="cls-4" d="M645.77,310.74c0-2.33,.41-4.6,1.25-6.81,.83-2.21,2.05-4.21,3.66-6.02s3.56-3.24,5.86-4.32c2.29-1.08,4.89-1.62,7.79-1.62,3.46,0,6.46,.76,8.98,2.28,2.53,1.52,4.39,3.5,5.59,5.94l-5.56,3.87c-.64-1.41-1.47-2.53-2.49-3.34-1.03-.81-2.13-1.39-3.31-1.75-1.18-.35-2.32-.53-3.42-.53-1.84,0-3.44,.37-4.8,1.11-1.36,.74-2.49,1.71-3.39,2.92-.9,1.2-1.58,2.54-2.04,4.03-.46,1.48-.69,2.99-.69,4.5,0,1.63,.27,3.21,.79,4.74,.53,1.54,1.28,2.9,2.25,4.08,.97,1.18,2.14,2.12,3.5,2.81,1.36,.69,2.85,1.03,4.48,1.03,1.13,0,2.3-.19,3.5-.58,1.2-.39,2.31-1.01,3.34-1.85,1.02-.85,1.86-1.96,2.49-3.34l5.94,3.5c-.78,1.87-2,3.46-3.68,4.77-1.68,1.31-3.55,2.3-5.62,2.97-2.07,.67-4.12,1.01-6.17,1.01-2.69,0-5.13-.56-7.34-1.67-2.21-1.11-4.12-2.6-5.75-4.45-1.62-1.86-2.89-3.94-3.79-6.25-.9-2.31-1.35-4.66-1.35-7.02Z"/><path class="cls-4" d="M704.2,330.14c-2.76,0-5.25-.53-7.47-1.59-2.22-1.06-4.15-2.5-5.78-4.32-1.63-1.82-2.88-3.87-3.76-6.15-.88-2.28-1.33-4.62-1.33-7.02s.47-4.9,1.41-7.18c.94-2.28,2.22-4.31,3.87-6.1,1.64-1.78,3.6-3.2,5.86-4.24s4.72-1.56,7.37-1.56,5.2,.55,7.45,1.64c2.24,1.1,4.16,2.56,5.75,4.4s2.82,3.89,3.68,6.15c.87,2.26,1.3,4.59,1.3,7s-.45,4.85-1.35,7.13c-.9,2.28-2.17,4.31-3.82,6.09s-3.59,3.19-5.83,4.21c-2.24,1.03-4.69,1.54-7.34,1.54Zm-10.92-19.08c0,1.63,.25,3.2,.74,4.72,.5,1.52,1.21,2.87,2.15,4.05,.94,1.18,2.09,2.12,3.45,2.81,1.36,.69,2.91,1.03,4.64,1.03s3.37-.36,4.72-1.09c1.34-.72,2.48-1.69,3.42-2.89,.94-1.2,1.63-2.56,2.09-4.08,.46-1.52,.69-3.04,.69-4.56,0-1.62-.25-3.19-.74-4.69-.5-1.5-1.22-2.84-2.17-4.03-.95-1.18-2.1-2.12-3.45-2.81-1.34-.69-2.88-1.03-4.61-1.03s-3.28,.36-4.64,1.09c-1.36,.72-2.51,1.68-3.45,2.86-.94,1.18-1.64,2.53-2.12,4.03s-.71,3.03-.71,4.58Z"/><path class="cls-4" d="M763.37,329.87v-24.7l-9.7,18.39h-4.08l-9.64-18.39v24.7h-7.31v-37.63h7.9l11.08,21.36,11.18-21.36h7.84v37.63h-7.26Z"/><path class="cls-4" d="M813.42,329.87v-24.7l-9.7,18.39h-4.08l-9.64-18.39v24.7h-7.31v-37.63h7.9l11.08,21.36,11.18-21.36h7.84v37.63h-7.26Z"/><path class="cls-4" d="M848.76,330.14c-2.97,0-5.5-.5-7.61-1.51-2.1-1.01-3.8-2.39-5.09-4.16-1.29-1.77-2.23-3.77-2.84-6.02-.6-2.24-.9-4.58-.9-7.02v-19.19h7.26v19.19c0,1.56,.17,3.07,.5,4.53s.85,2.78,1.54,3.95c.69,1.17,1.62,2.08,2.78,2.76,1.17,.67,2.62,1.01,4.35,1.01s3.28-.34,4.43-1.03c1.15-.69,2.08-1.62,2.78-2.78,.71-1.17,1.22-2.48,1.54-3.95,.32-1.47,.48-2.96,.48-4.48v-19.19h7.26v19.19c0,2.54-.32,4.96-.95,7.23-.64,2.28-1.61,4.28-2.92,5.99-1.31,1.71-3,3.06-5.09,4.03-2.08,.97-4.59,1.46-7.53,1.46Z"/><path class="cls-4" d="M884.28,305.7v24.17h-7.31v-37.63h5.88l19.4,24.8v-24.75h7.26v37.58h-6.04l-19.19-24.17Z"/><path class="cls-4" d="M921.62,329.87v-37.63h7.31v37.63h-7.31Z"/><path class="cls-4" d="M968.82,298.66h-11.98v31.22h-7.26v-31.22h-12.08v-6.41h31.32v6.41Z"/><path class="cls-4" d="M983.87,292.24l9.27,17.7,9.44-17.7h7.9l-13.67,24.49v13.14h-7.26v-13.25l-13.57-24.38h7.9Z"/></g><g><path class="cls-4" d="M1073.29,329.87v-37.63h7.31v37.63h-7.31Z"/><path class="cls-4" d="M1123.38,329.87v-24.7l-9.7,18.39h-4.08l-9.65-18.39v24.7h-7.31v-37.63h7.9l11.08,21.36,11.18-21.36h7.84v37.63h-7.26Z"/><path class="cls-4" d="M1142.68,329.87v-37.63h15.95c1.73,0,3.33,.35,4.8,1.06,1.47,.71,2.73,1.66,3.79,2.86,1.06,1.2,1.88,2.54,2.46,4.03,.58,1.48,.87,3,.87,4.56,0,2.08-.48,4.09-1.43,6.02s-2.31,3.49-4.05,4.69-3.79,1.8-6.12,1.8h-8.96v12.61h-7.31Zm7.31-19.03h8.48c.92,0,1.73-.25,2.44-.74,.71-.5,1.26-1.21,1.67-2.15s.61-2,.61-3.21c0-1.31-.24-2.41-.71-3.31-.48-.9-1.1-1.59-1.86-2.07-.76-.48-1.58-.71-2.46-.71h-8.16v12.19Z"/><path class="cls-4" d="M1186.98,292.24h7.42l13.83,37.63h-7.53l-3.13-9.38h-13.82l-3.14,9.38h-7.53l13.89-37.63Zm8.89,23.11l-5.18-15.53-5.2,15.53h10.38Z"/><path class="cls-4" d="M1212.55,310.74c0-2.33,.42-4.6,1.25-6.81,.83-2.21,2.05-4.21,3.66-6.02,1.61-1.8,3.56-3.24,5.86-4.32,2.3-1.08,4.89-1.62,7.79-1.62,3.46,0,6.46,.76,8.98,2.28,2.53,1.52,4.39,3.5,5.59,5.94l-5.56,3.87c-.64-1.41-1.47-2.53-2.49-3.34-1.03-.81-2.13-1.39-3.31-1.75-1.18-.35-2.32-.53-3.42-.53-1.84,0-3.44,.37-4.8,1.11-1.36,.74-2.49,1.71-3.39,2.92-.9,1.2-1.58,2.54-2.04,4.03-.46,1.48-.69,2.99-.69,4.5,0,1.63,.26,3.21,.79,4.74,.53,1.54,1.28,2.9,2.25,4.08,.97,1.18,2.14,2.12,3.5,2.81,1.36,.69,2.85,1.03,4.48,1.03,1.13,0,2.3-.19,3.5-.58,1.2-.39,2.31-1.01,3.34-1.85,1.02-.85,1.86-1.96,2.49-3.34l5.94,3.5c-.78,1.87-2,3.46-3.68,4.77-1.68,1.31-3.55,2.3-5.62,2.97-2.07,.67-4.13,1.01-6.17,1.01-2.69,0-5.13-.56-7.34-1.67s-4.12-2.6-5.75-4.45c-1.63-1.86-2.89-3.94-3.79-6.25-.9-2.31-1.35-4.66-1.35-7.02Z"/><path class="cls-4" d="M1281.86,298.66h-11.98v31.22h-7.26v-31.22h-12.08v-6.41h31.32v6.41Z"/></g><path class="cls-4" d="M609.94,316.17c.66,.18,1.34,.27,2.01,.27,1.34,0,2.65-.35,3.84-1.04h0c1.78-1.03,3.06-2.69,3.59-4.68,.53-1.99,.26-4.07-.77-5.85-2.13-3.68-6.85-4.95-10.53-2.82-3.68,2.13-4.95,6.85-2.82,10.53,1.03,1.78,2.69,3.06,4.68,3.59Z"/><path class="cls-4" d="M1035.42,316.17c.66,.18,1.34,.27,2.01,.27,1.34,0,2.65-.35,3.84-1.04h0c1.78-1.03,3.06-2.69,3.59-4.68,.53-1.99,.26-4.07-.77-5.85-2.13-3.68-6.85-4.95-10.53-2.82-3.68,2.13-4.95,6.85-2.82,10.53,1.03,1.78,2.69,3.06,4.68,3.59Z"/><g><circle class="cls-1" cx="117.73" cy="135.54" r="25.99"/><circle class="cls-3" cx="117.73" cy="249.27" r="19.23"/><path class="cls-1" d="M9.62,95.33c2.96,1.71,6.25,2.58,9.58,2.58,1.67,0,3.35-.22,5.01-.66,4.96-1.33,9.11-4.51,11.68-8.96,5.3-9.18,2.14-20.97-7.04-26.27h0c-4.45-2.57-9.63-3.25-14.59-1.92-4.96,1.33-9.11,4.51-11.68,8.96C.02,73.51-.67,78.69,.66,83.65c1.33,4.96,4.51,9.11,8.96,11.68Z"/><path class="cls-2" d="M211.24,97.25c1.66,.44,3.34,.66,5.01,.66,3.33,0,6.62-.87,9.58-2.58h0c4.45-2.57,7.63-6.71,8.96-11.68,1.33-4.96,.65-10.14-1.92-14.59-5.3-9.18-17.09-12.34-26.27-7.04-9.18,5.3-12.34,17.09-7.04,26.27,2.57,4.45,6.72,7.63,11.68,8.96Z"/><polygon class="cls-2" points="86.46 54.2 117.73 36.12 149 54.2 149 99.43 180.27 99.43 180.27 36.16 117.73 0 55.19 36.16 55.19 99.43 86.46 99.43 86.46 54.2"/><polygon class="cls-3" points="180.27 99.43 164.64 126.51 203.8 149.13 203.83 185.25 172.53 203.29 133.37 180.67 117.73 207.75 172.52 239.39 235.11 203.31 235.06 131.06 180.27 99.43"/><polygon class="cls-1" points="102.09 180.67 62.93 203.29 31.63 185.25 31.66 149.13 70.82 126.51 55.19 99.43 .4 131.06 .35 203.31 62.94 239.39 117.73 207.75 102.09 180.67"/></g></g></g><g id="Layer_7"><g><circle class="cls-1" cx="117.73" cy="135.54" r="25.99"/><circle class="cls-3" cx="117.73" cy="249.27" r="19.23"/><path class="cls-1" d="M9.62,95.33c2.96,1.71,6.25,2.58,9.58,2.58,1.67,0,3.35-.22,5.01-.66,4.96-1.33,9.11-4.51,11.68-8.96,5.3-9.18,2.14-20.97-7.04-26.27h0c-4.45-2.57-9.63-3.25-14.59-1.92-4.96,1.33-9.11,4.51-11.68,8.96C.02,73.51-.67,78.69,.66,83.65c1.33,4.96,4.51,9.11,8.96,11.68Z"/><path class="cls-2" d="M211.24,97.25c1.66,.44,3.34,.66,5.01,.66,3.33,0,6.62-.87,9.58-2.58h0c4.45-2.57,7.63-6.71,8.96-11.68,1.33-4.96,.65-10.14-1.92-14.59-5.3-9.18-17.09-12.34-26.27-7.04-9.18,5.3-12.34,17.09-7.04,26.27,2.57,4.45,6.72,7.63,11.68,8.96Z"/><polygon class="cls-2" points="86.46 54.2 117.73 36.12 149 54.2 149 99.43 180.27 99.43 180.27 36.16 117.73 0 55.19 36.16 55.19 99.43 86.46 99.43 86.46 54.2"/><polygon class="cls-3" points="180.27 99.43 164.64 126.51 203.8 149.13 203.83 185.25 172.53 203.29 133.37 180.67 117.73 207.75 172.52 239.39 235.11 203.31 235.06 131.06 180.27 99.43"/><polygon class="cls-1" points="102.09 180.67 62.93 203.29 31.63 185.25 31.66 149.13 70.82 126.51 55.19 99.43 .4 131.06 .35 203.31 62.94 239.39 117.73 207.75 102.09 180.67"/></g></g></svg>